# xmcd
# 
# Track frame offsets:
#     150
#     21722
#     47115
#     64312
#     83810
#     105535
#     120287
#     136500
#     155925
#     168687
#     184187
#     200462
#     215512
#     232787
# 
# Disc length: 3319
# 
# Revision: 2
# Processed by: cddbd v1.5.2PL0 Copyright (c) Steve Scherf et al.
# Submitted via: BonkEnc v1.0
# 
DISCID=c30cf50e
DTITLE=Chitaozinho and Xororo - Colecao Obras-Primas
DYEAR=0
DGENRE=
TTITLE0=Um Homem Quando Ama
TTITLE1=Caminhoneiro
TTITLE2=Vez em Quando Vem me Ver
TTITLE3=E Assim que te Amo
TTITLE4=Recomecar
TTITLE5=Planeta Azul
TTITLE6=Colheita de Milho
TTITLE7=Terra Amante
TTITLE8=Ave Maria
TTITLE9=Ate que te Conheci
TTITLE10=Pod Ser pra Valer
TTITLE11=Loira Gelada
TTITLE12=O Rio
TTITLE13=Pagina de Amigos
EXTD=
EXTT0=Have You Ever Really Loved a Woman
EXTT1=Gentle on My Mind
EXTT2=
EXTT3=The Air that I Breathe
EXTT4=
EXTT5=
EXTT6=Chiquinha
EXTT7=
EXTT8=
EXTT9=Hasta que te Conoci
EXTT10=
EXTT11=
EXTT12=
EXTT13=
PLAYORDER=
